<?xml version="1.0" encoding="utf-8"?>
<!-- Generator: Adobe Illustrator 24.1.2, SVG Export Plug-In . SVG Version: 6.00 Build 0)  -->
<svg version="1.1" id="Layer_1" xmlns="http://www.w3.org/2000/svg" xmlns:xlink="http://www.w3.org/1999/xlink" x="0px" y="0px"
	 viewBox="0 0 182 46" style="enable-background:new 0 0 182 46;" xml:space="preserve">
<style type="text/css">
	.st0{fill:#FFFFFF;}
</style>
<g>
	<desc>Created with Sketch.</desc>
	<polygon class="st0" points="43.2,39.5 43.2,37.9 36,37.9 36,44.8 37.8,44.8 37.8,42.2 41.9,42.2 41.9,40.6 37.8,40.6 37.8,39.5 	
		"/>
	<rect x="58.3" y="37.9" class="st0" width="1.8" height="7"/>
	<polygon class="st0" points="75.1,39.5 78.3,39.5 78.3,44.8 80.1,44.8 80.1,39.5 83.4,39.5 83.4,37.9 75.1,37.9 	"/>
	<polygon class="st0" points="104.6,41.9 98.9,37.8 98.3,37.8 98.3,44.8 100.1,44.8 100.1,40.7 105.8,45 106.4,45 106.4,37.9 
		104.6,37.9 	"/>
	<polygon class="st0" points="123.6,42.1 127.5,42.1 127.5,40.4 123.6,40.4 123.6,39.5 128.9,39.5 128.9,37.9 121.8,37.9 
		121.8,44.8 129.2,44.8 129.2,43.1 123.6,43.1 	"/>
	<path class="st0" d="M148.9,40.4l-1.9-0.1c-1.3-0.1-1.3-0.3-1.3-0.4c0-0.4,0.7-0.6,2-0.6c1.6,0,2.4,0.3,3,0.6l0.3,0.2l0.8-1.5
		l-0.3-0.2c-1-0.5-2.1-0.8-3.8-0.8c-2.4,0-3.8,0.8-3.8,2.3c0,1.8,2.1,2,2.9,2l1.9,0.1c1.4,0.1,1.4,0.3,1.4,0.5
		c0,0.5-0.8,0.7-2.2,0.7c-1.7,0-2.6-0.4-3.2-0.8l-0.3-0.2l-1,1.4l0.3,0.2c1,0.7,2.3,1,4.1,1c2.6,0,4-0.9,4-2.4
		C152,40.6,149.9,40.5,148.9,40.4z"/>
	<path class="st0" d="M171.6,40.4l-1.9-0.1c-1.3-0.1-1.3-0.3-1.3-0.4c0-0.4,0.7-0.6,2-0.6c1.6,0,2.4,0.3,3,0.6l0.3,0.2l0.8-1.5
		l-0.3-0.2c-1-0.5-2.1-0.8-3.8-0.8c-2.4,0-3.8,0.8-3.8,2.3c0,1.8,2.1,2,2.9,2l1.9,0.1c1.4,0.1,1.4,0.3,1.4,0.5
		c0,0.5-0.8,0.7-2.2,0.7c-1.7,0-2.6-0.4-3.2-0.8l-0.3-0.2l-1,1.4l0.3,0.2c1,0.7,2.3,1,4.1,1c2.6,0,4-0.9,4-2.4
		C174.7,40.6,172.6,40.5,171.6,40.4z"/>
	<path class="st0" d="M32.3,16.3h3.6v1.5l0.2-0.2l0.2-0.3c0.7-0.9,1.7-1.3,2.9-1.4h0.4v3.3c-0.2-0.1-0.4-0.1-0.5-0.1
		c-2-0.2-3,0.9-3,2.9v7.5h-3.8V16.3z"/>
	<path class="st0" d="M43.9,21.4c0.6-0.1,1.2-0.1,1.8,0c1.2,0.1,2,0.4,2.7,0.9v-0.9c0-1.4-0.9-2.2-3-2.5c-0.8-0.1-2.1-0.1-3.5,0.1
		c-0.2,0-0.4,0.1-0.6,0.1v-2.9c0.8-0.1,1.4-0.2,2.2-0.2c6.2-0.2,8.6,1.8,8.6,5.6v7.8h-3.7v-1.2c-0.1,0.1-0.3,0.2-0.4,0.3
		c-1,0.7-2.1,1.1-3.5,1c-3.2,0-5.1-2-5-4.1C39.5,23.5,41.1,21.8,43.9,21.4 M45.4,27.4c0.3,0,0.6,0,0.9,0c0.6-0.1,1-0.2,1.3-0.5
		c0.9-0.6,1-1.8,0.3-2.5c-0.4-0.3-0.9-0.6-1.7-0.7c-2-0.3-3.1,0.6-3.2,1.8C43.2,26.5,43.9,27.3,45.4,27.4"/>
	<path class="st0" d="M54.8,16.3h3.6v1.4c0.1-0.1,0.2-0.2,0.3-0.3c1-0.9,2.1-1.4,3.4-1.4c3.2-0.1,5.2,2.1,5.2,5.9v7.6h-3.8v-7.1
		c0-1.9-0.7-2.9-2-3.3c-1.9-0.5-3,0.6-3,2.6v7.8h-3.8V16.3z"/>
	<path class="st0" d="M69.6,21.7c0.3-1.8,1.3-3.3,2.7-4.3c2.6-1.8,5.9-1.5,7.5,0.4v-1.5h3.6v13.1c0,3.7-2.5,6-7.5,6.1
		c-0.8,0-1.5-0.1-2.3-0.2V32c0.7,0.2,1.4,0.3,2.1,0.3c2.7-0.1,3.9-1.2,3.9-3.1v-1c-1.4,1.6-3.9,2.1-6.5,1c-2-0.9-3.3-2.7-3.6-5
		c0-0.4-0.1-0.8-0.1-1.3C69.5,22.5,69.5,22.1,69.6,21.7 M73.3,23.4c0.3,2.2,1.8,3.5,3.9,3.1c1.4-0.2,2.4-1.3,2.6-3.1
		c0.1-0.4,0.1-0.8,0-1.2c-0.3-2.1-1.5-3.2-3.2-3.2c-1.8,0-3,1.1-3.2,3.2c0,0.2-0.1,0.4-0.1,0.6C73.3,23.1,73.3,23.2,73.3,23.4"/>
	<path class="st0" d="M99.8,16.3h1.5v-3.4l1.9-0.8v4.2h3.5l-0.4,1.4h-3.2v7l0,0.4l0,0.8c0,1.6,1,2.4,3,2.3c0.2,0,0.3,0,0.5-0.1v1.5
		c-0.2,0-0.3,0.1-0.5,0.1c-3.8,0.3-5-1-5-4.9v-7h-1.7L99.8,16.3z"/>
	<path class="st0" d="M108.4,11.1l1.9-0.4v7.7c0.2-0.3,0.5-0.6,0.8-0.9c0.7-0.7,1.6-1.1,2.6-1.4c3.9-0.8,6.7,1.7,6.7,5.7v7.7h-1.9
		v-7c0-3.2-1.5-4.9-4.1-4.8c-2.6,0-4.2,1.7-4.2,4.5v7.4h-1.9V11.1z"/>
	<path class="st0" d="M123.1,20.1c0.9-2.2,2.8-3.7,5.2-4.1c4.1-0.6,7.6,2.3,7.8,6.4c0,0.3,0,0.6,0,0.8l-11.5,0c0,0.1,0,0.2,0,0.3
		c0.1,1.7,1,3.1,2.6,3.9c2,1,4.4,0.6,6.2-1.1c0.1-0.1,0.2-0.2,0.3-0.3l1.4,1c-0.4,0.5-0.9,0.9-1.4,1.3c-1.8,1.3-3.9,1.6-6,1
		c-3.9-1.1-5.8-4.4-5-8.1C122.8,21,123,20.6,123.1,20.1 M134.3,21.9l0-0.2l0-0.3c0-0.2-0.1-0.3-0.1-0.6c-0.6-1.9-2.3-3.2-4.4-3.3
		c-2.2,0-4,1.3-4.7,3.4c-0.1,0.3-0.2,0.7-0.2,1L134.3,21.9z"/>
	<path class="st0" d="M146.5,15.9c3.6,0.5,5.9,3.2,5.9,6.9c0,3.7-2.2,6.4-5.9,6.9c-4.8,0.7-8.3-2.4-8.3-6.9S141.7,15.2,146.5,15.9
		 M144.4,28c0.6,0.1,1.1,0.1,1.7,0c2.9-0.5,4.7-3,4.1-6.3c-0.2-1.1-0.7-2.1-1.5-2.8c-0.9-0.8-2.1-1.3-3.5-1.3
		c-1.4,0-2.6,0.5-3.5,1.3c-1,0.9-1.6,2.3-1.6,3.9C140.2,25.6,141.9,27.6,144.4,28"/>
	<path class="st0" d="M155,16.3h1.9v1.9c0.1-0.1,0.1-0.2,0.2-0.3c0.9-1.3,2.1-1.9,3.6-1.9c0.2,0,0.4,0,0.5,0v1.8
		c-0.2,0-0.4-0.1-0.6-0.1c-1.2-0.1-2.2,0.4-2.9,1.1c-0.6,0.7-0.8,1.4-0.8,2.6v8.1H155V16.3z"/>
	<path class="st0" d="M162.8,16.3h1.9v7.2c0,2.8,0.9,4.1,3.1,4.5c0.6,0.1,1.2,0.1,1.8,0c2.2-0.4,3.2-1.7,3.2-4.1v-7.6h1.9v12.7
		c0,3.6-2.7,6-8.1,5.7c-0.3,0-0.6-0.1-0.9-0.1v-1.6c0.3,0.1,0.6,0.1,0.9,0.1c4.2,0.2,6.2-1.5,6.2-4.4v-1.2c-0.1,0.2-0.2,0.3-0.3,0.4
		c-1.1,1.3-2.5,1.9-4.3,1.9c-3.2,0-5.2-1.9-5.4-4.8c0-0.4,0-0.4,0-1.1V16.3z"/>
	<path class="st0" d="M178.5,11.4c1.4,0,2.4,1.1,2.4,2.4c0,1.4-1.1,2.4-2.4,2.4c-1.4,0-2.5-1-2.5-2.4
		C176,12.4,177.1,11.4,178.5,11.4L178.5,11.4z M178.5,11.9c-1,0-1.8,0.9-1.8,1.9c0,1.1,0.8,1.9,1.9,1.9c1,0,1.8-0.8,1.8-1.9
		C180.3,12.7,179.5,11.9,178.5,11.9L178.5,11.9z M178.1,15h-0.6v-2.4c0.2,0,0.5-0.1,0.9-0.1c0.5,0,0.7,0.1,0.8,0.2
		c0.1,0.1,0.2,0.3,0.2,0.5c0,0.3-0.2,0.5-0.5,0.6v0c0.2,0.1,0.4,0.3,0.4,0.6c0.1,0.4,0.1,0.5,0.2,0.6h-0.6c-0.1-0.1-0.1-0.3-0.2-0.6
		c0-0.3-0.2-0.4-0.5-0.4h-0.3V15z M178.1,13.7h0.3c0.3,0,0.6-0.1,0.6-0.3c0-0.2-0.2-0.4-0.5-0.4c-0.1,0-0.2,0-0.3,0V13.7z"/>
	<path class="st0" d="M99.1,23.9c0-0.4,0-0.7,0-1.1c-0.1-3.9-2.8-6.6-6.5-6.8c-0.9,0-1.8,0.1-2.7,0.4c-2.3,0.8-3.9,2.7-4.4,5
		c-0.8,3.5,1.1,7.2,5.1,8.3c2.7,0.8,5.2,0,7.2-2c0.1-0.1,0.2-0.2,0.3-0.4l-2.9-1.9c-0.1,0.1-0.1,0.1-0.2,0.2c-0.5,0.6-1,0.9-1.6,1.1
		c-1,0.3-1.9,0.2-2.6-0.2c-1-0.6-1.6-1.6-1.5-2.4l0,0H99.1z M92.7,18.6c1.6,0,2.9,1.1,3,2.7l0,0.2h-6.4c0.1-0.2,0.1-0.4,0.2-0.6
		C90,19.5,91.3,18.6,92.7,18.6z"/>
	<path class="st0" d="M31.6,31L31.6,31c-2.5,0.4-3.7-1.7-2.9-3.5c0.7-1.5,1-3.1,1-4.8c0-1.7-0.3-3.3-1-4.8c-0.6-1.5,0.4-3.9,2.9-3.5
		c1.3,0.2,2.4-1.1,2.4-2.8c0-1.7-1-3.4-2.4-3.7C30.2,7.5,29,8.8,29,10.7c0,3.3-1.8,4.6-3.3,3.4c-1.3-1.1-2.8-1.8-4.5-2.1
		c-1.8-0.3-3.5,0-5.1,0.7c-0.2,0.1-0.3,0.1-0.5,0.1C13.9,13,11.2,11,11.2,7c0-2.4-2.1-5-4.8-5.7C3.4,0.6,0.8,2.2,0.8,5
		c0,2.8,2.5,5.4,5.5,5.8c4.1,0.6,6.1,3,5.7,5c0,0.2-0.1,0.4-0.3,0.6c-1.1,1.7-1.8,3.9-1.8,6.4c0,2.3,0.6,4.4,1.7,6.1
		c0.1,0.2,0.2,0.4,0.2,0.6c0.3,1.8-1.4,4.6-5.6,5.2h0c-2.9,0.4-5.5,3-5.5,5.8c0,2.8,2.5,4.4,5.5,3.6c2.7-0.7,4.8-3.2,4.8-5.7
		c0,0,0,0,0,0c0-3.9,2.4-6.2,4.4-5.8c0.1,0,0.3,0.1,0.4,0.1c1.6,0.8,3.4,1.1,5.3,0.8c1.7-0.3,3.2-1,4.5-2c1.2-0.9,3.3,0.1,3.3,3.3v0
		c0,1.9,1.2,3.1,2.6,2.7c1.3-0.3,2.4-2,2.4-3.7C33.9,32.1,32.9,30.8,31.6,31z M21.1,29.5c-3.5,0.4-6.7-2.6-6.7-6.7
		c0-4.1,3.2-7.1,6.7-6.7c3.2,0.4,5.5,3.4,5.5,6.7C26.6,26.1,24.3,29.1,21.1,29.5z"/>
</g>
</svg>
